# xmcd CD database file
#
# Track frame offsets:
#	150
#	20481
#	44925
#	66192
#	86787
#	105632
#	127835
#	150045
#	170264
#	192885
#	209671
#	231364
#
# Disc length: 3330 seconds
#
# Revision: 0
# Processed by: cddbd v1.5.1PL0 Copyright (c) Steve Scherf et al.
# Submitted via: CDex 1.50beta10
#
DISCID=a00d000c
DTITLE=ZARD - 止まっていた時計が今動き出した(デモ段階)
DYEAR=2004
DGENRE=JPop
TTITLE0=pray
TTITLE1=出逢いそして別れ
TTITLE2=時の翼
TTITLE3=明日を夢見て
TTITLE4=止まっていた時計が今動き出した
TTITLE5=瞳閉じて
TTITLE6=さわやかな君の気持ち
TTITLE7=もっと近くで君の横顔見ていたい
TTITLE8=愛であなたを救いましょう
TTITLE9=天使のような笑顔
TTITLE10=I can't tell(未発表曲)
TTITLE11=悲しいほど 今日は雨でも
EXTD=YEAR: 2004
EXTT0=
EXTT1=
EXTT2=
EXTT3=
EXTT4=
EXTT5=
EXTT6=
EXTT7=
EXTT8=
EXTT9=
EXTT10=
EXTT11=
PLAYORDER=
